<mxfile host="app.diagrams.net" modified="2024-03-08T13:37:05.041Z" agent="Mozilla/5.0 (Windows NT 10.0; Win64; x64) AppleWebKit/537.36 (KHTML, like Gecko) Chrome/122.0.0.0 Safari/537.36" version="23.1.1" etag="CTps9KyOf_n3iGfNQ2Pk" type="github">
  <diagram name="Page-1" id="sKITD_88z1vJ94t6zKOO">
    <mxGraphModel>
      <root>
        <mxCell id="0" />
        <mxCell id="1" parent="0" />
      </root>
    </mxGraphModel>
  </diagram>
</mxfile>
